{"title":"Idiot Box 1996.DVDRip.H.263.DivX . NVEE","uid":8419306,"size":876910945,"categoryP":"video","categoryS":"movies","magnet":"?xt=urn:btih:4acc694443c84dab84b224559578533f8e9c7ae4&amp;dn=Idiot+Box+1996.DVDRip.H.263.DivX+.+NVEE&amp;tr=udp%3A%2F%2Ftracker.openbittorrent.com%3A80&amp;tr=udp%3A%2F%2Fopen.demonii.com%3A1337&amp;tr=udp%3A%2F%2Ftracker.coppersurfer.tk%3A6969&amp;tr=udp%3A%2F%2Fexodus.desync.com%3A6969","seeders":2,"leechers":1,"uploader":".NVEE","files":5,"time":1367136510,"description":"FULL_INFOs\n\n99.99% - SYNCED GUARANTEED \n\nSource : DVD\n\nUSE_CROP\n\nMy Media Player of Choice &quot;VLC Media Player&quot;\n\nSpoken Language : English Only\n\nAudio : 2 ~ Channels \n\n &lt;a href=&quot;\nhttp://www.imdb.com/title/tt0116604/&quot; rel=&quot;nofollow&quot; target=&quot;_NEW&quot;&gt;\nhttp://www.imdb.com/title/tt0116604/&lt;/a&gt;\n\n\n\nSubs Info : English_Arabic\n &lt;a href=&quot;\nhttp://www.subtitleseeker.com/0116604/Idiot+Box/Subtitles/&quot; rel=&quot;nofollow&quot; target=&quot;_NEW&quot;&gt;\nhttp://www.subtitleseeker.com/0116604/Idiot+Box/Subtitles/&lt;/a&gt;\n\n3 Subtitles In 2 Languages Use Link Provided \n &lt;a href=&quot;\nhttp://www.subtitleseeker.com/0116604/Idiot+Box/Subtitles/&quot; rel=&quot;nofollow&quot; target=&quot;_NEW&quot;&gt;\nhttp://www.subtitleseeker.com/0116604/Idiot+Box/Subtitles/&lt;/a&gt;\n\n3 Subtitles In 2 Languages Only @ SubtitleSeeker\n &lt;a href=&quot;\nhttp://www.subtitleseeker.com/0116604/Idiot+Box/Subtitles/&quot; rel=&quot;nofollow&quot; target=&quot;_NEW&quot;&gt;\nhttp://www.subtitleseeker.com/0116604/Idiot+Box/Subtitles/&lt;/a&gt;\n\nAll .srt subs can be turned On/Off\n\n &lt;a href=&quot;\nhttp://www.imdb.com/title/tt0116604/&quot; rel=&quot;nofollow&quot; target=&quot;_NEW&quot;&gt;\nhttp://www.imdb.com/title/tt0116604/&lt;/a&gt;\n\n\nGeneral \n\nComplete name : Idiot Box 1996.DVDRip.H.263.DivX . NVEE.divx \nFormat : AVI \nFormat/Info : Audio Video Interleave \nFile size : 836 MiB \nDuration : 1h 17mn \nOverall bit rate : 1 502 Kbps \n\nVideo \n\nID : 0 \nFormat : MPEG-4 Visual \nFormat settings, BVOP : 1 \nFormat settings, QPel : No \nFormat settings, GMC : No warppoints \nFormat settings, Matrix : Default (H.263) \nMuxing mode : Packed bitstream \nCodec ID : DX50 \nCodec ID/Hint : DivX 5 \nDuration : 1h 17mn \nBit rate : 1 301 Kbps \nWidth : 720 pixels \nHeight : 528 pixels \nDisplay aspect ratio : 4:3 \nFrame rate : 25.000 fps \nColor space : YUV \nChroma subsampling : 4:2:0 \nBit depth : 8 bits \nScan type : Progressive \nCompression mode : Lossy \nBits/(Pixel*Frame) : 0.137 \nStream size : 724 MiB (87%) \nTitle : Video \nWriting library : DivX 6.8.2 (UTC 2008-05-17) \n\nAudio \n\nID : 1 \nFormat : AC-3 \nFormat/Info : Audio Coding 3 \nFormat profile : Dolby Digital \nMode extension : CM (complete main) \nFormat settings, Endianness : Big \nCodec ID : 2000 \nDuration : 1h 17mn \nBit rate mode : Constant \nBit rate : 192 Kbps \nChannel(s) : 2 channels \nChannel positions : Front: L R \nSampling rate : 48.0 KHz \nBit depth : 16 bits \nCompression mode : Lossy \nStream size : 107 MiB (13%) \nAlignment : Split accross interleaves \nInterleave, duration : 40 ms (1.00 video frame) \nInterleave, preload duration : 500 ms \nTitle : Audio\n\n\nPlot\n\nThe story follows two fictional characters &quot;Mick &amp; Kev&quot; that have nothing going for them. They are stereotypical bogans with a taste for cheap thrills. Kev's hobby is being angry, his motto is &quot;Maximum fear, minimum time&quot;. He has not got a job but he has got an attitude. His best mate is Mick and together they kill time drinking beer, watching the Idiot Box and looking for action on the street.\n\nOne day Kev tells Mick they have drawn their last dole cheque. Instead they are going to get rich quick doing the only thing they are qualified for - crime. Conning a friend into driving the getaway car, the gang of three plan a bank robbery. But it is a heist that is doomed from the start when professional criminals target the same bank.\n\n\n &lt;a href=&quot;\nhttp://www.imdb.com/title/tt0116604/&quot; rel=&quot;nofollow&quot; target=&quot;_NEW&quot;&gt;\nhttp://www.imdb.com/title/tt0116604/&lt;/a&gt;\n\n\n\n&quot;This Torrent File is 100% Australian&quot;\n\n\nPLEASE SEED !!!\n  (Thank You)","torrent":{"xt":"urn:btih:4acc694443c84dab84b224559578533f8e9c7ae4","amp;dn":"Idiot+Box+1996.DVDRip.H.263.DivX+.+NVEE","amp;tr":["udp%3A%2F%2Ftracker.openbittorrent.com%3A80","udp%3A%2F%2Fopen.demonii.com%3A1337","udp%3A%2F%2Ftracker.coppersurfer.tk%3A6969","udp%3A%2F%2Fexodus.desync.com%3A6969"],"infoHash":"4acc694443c84dab84b224559578533f8e9c7ae4","infoHashBuffer":{"type":"Buffer","data":[74,204,105,68,67,200,77,171,132,178,36,85,149,120,83,63,142,156,122,228]},"announce":[],"urlList":[]}}